<?xml version="1.0" encoding="UTF-8" standalone="no"?>
<!-- Created with Inkscape (http://www.inkscape.org/) -->

<svg
   width="101.80826mm"
   height="123.08509mm"
   viewBox="0 0 101.80826 123.08509"
   version="1.1"
   id="svg5"
   xml:space="preserve"
   xmlns:inkscape="http://www.inkscape.org/namespaces/inkscape"
   xmlns:sodipodi="http://sodipodi.sourceforge.net/DTD/sodipodi-0.dtd"
   xmlns="http://www.w3.org/2000/svg"
   xmlns:svg="http://www.w3.org/2000/svg"><sodipodi:namedview
     id="namedview7"
     pagecolor="#ffffff"
     bordercolor="#000000"
     borderopacity="0.25"
     inkscape:showpageshadow="2"
     inkscape:pageopacity="0.0"
     inkscape:pagecheckerboard="0"
     inkscape:deskcolor="#d1d1d1"
     inkscape:document-units="mm"
     showgrid="false" /><defs
     id="defs2" /><g
     inkscape:label="Layer 1"
     inkscape:groupmode="layer"
     id="layer1"
     transform="translate(-30.301915,-77.212438)"><path
       style="fill:#ffffff;stroke-width:0.131216"
       d="m 53.746279,199.93671 c -0.167728,-0.42889 -0.391947,-0.96554 -0.687154,-1.64465 -0.118708,-0.27308 -0.215833,-0.55939 -0.215833,-0.63625 0,-0.0768 -0.08055,-0.3258 -0.179003,-0.55322 -0.186795,-0.43148 -0.499617,-1.22572 -0.834704,-2.11928 -0.108253,-0.28868 -0.285395,-0.76106 -0.393648,-1.04973 -0.108253,-0.28868 -0.273919,-0.73153 -0.368145,-0.98412 -0.558535,-1.49726 -0.78165,-2.04762 -0.875045,-2.15851 -0.05775,-0.0686 -0.104994,-0.24865 -0.104994,-0.40021 0,-0.15155 -0.04725,-0.33165 -0.104994,-0.40021 -0.094,-0.11159 -0.228576,-0.44301 -0.889839,-2.19131 -0.569472,-1.50561 -0.624937,-1.64437 -1.155699,-2.8912 -0.116247,-0.27309 -0.211359,-0.60912 -0.211359,-0.74675 0,-0.13763 -0.05686,-0.28538 -0.126357,-0.32833 -0.0695,-0.0429 -0.182912,-0.26787 -0.252031,-0.49981 -0.06912,-0.23194 -0.251211,-0.74647 -0.404646,-1.1434 -0.153435,-0.39693 -0.398872,-1.07597 -0.545417,-1.50898 -0.146543,-0.43302 -0.345998,-0.96444 -0.443232,-1.18095 -0.09723,-0.2165 -0.350692,-0.86602 -0.563241,-1.44338 -0.212548,-0.57735 -0.565487,-1.5221 -0.784308,-2.09945 -0.21882,-0.57735 -0.614838,-1.64021 -0.880039,-2.36189 -0.615959,-1.6762 -1.091853,-2.90713 -1.32665,-3.43145 -0.101836,-0.22742 -0.185157,-0.47162 -0.185157,-0.54267 0,-0.0711 -0.08821,-0.29832 -0.196016,-0.50504 -0.107809,-0.20671 -0.19638,-0.46736 -0.196825,-0.57923 -3.93e-4,-0.11186 -0.05054,-0.25948 -0.111319,-0.32804 -0.06078,-0.0686 -0.335811,-0.74465 -0.611178,-1.50242 -0.275366,-0.75777 -0.550396,-1.43387 -0.611177,-1.50243 -0.06078,-0.0686 -0.110875,-0.21617 -0.11132,-0.32804 -3.93e-4,-0.11186 -0.08902,-0.37251 -0.196824,-0.57923 -0.107808,-0.20671 -0.196016,-0.43397 -0.196016,-0.50503 0,-0.0711 -0.08341,-0.31526 -0.185362,-0.54267 -0.178819,-0.39888 -0.596698,-1.48457 -1.421769,-3.69388 -0.802362,-2.14851 -0.940883,-2.49603 -1.043414,-2.61776 -0.05775,-0.0686 -0.105358,-0.21618 -0.105802,-0.32804 -3.94e-4,-0.11186 -0.08345,-0.36179 -0.184458,-0.55539 -0.101006,-0.19361 -0.22328,-0.53245 -0.271719,-0.75299 -0.04844,-0.22054 -0.142575,-0.43467 -0.209192,-0.47584 -0.06661,-0.0412 -0.121483,-0.17471 -0.121928,-0.29674 -3.94e-4,-0.12204 -0.08345,-0.38029 -0.184457,-0.57389 -0.101007,-0.1936 -0.22328,-0.53245 -0.27172,-0.75299 -0.04844,-0.22054 -0.142574,-0.43467 -0.209192,-0.47584 -0.06661,-0.0412 -0.121483,-0.1747 -0.121928,-0.29674 -3.94e-4,-0.12204 -0.08345,-0.38029 -0.184457,-0.57389 -0.101007,-0.1936 -0.22328,-0.53245 -0.27172,-0.75299 -0.04844,-0.22054 -0.142574,-0.43467 -0.209191,-0.47584 -0.06662,-0.0412 -0.121121,-0.16578 -0.121121,-0.27691 0,-0.11113 -0.0935,-0.41764 -0.20777,-0.68114 -0.114275,-0.2635 -0.291417,-0.67298 -0.393649,-0.90998 -0.102233,-0.237 -0.185878,-0.54351 -0.185878,-0.68114 0,-0.13763 -0.05686,-0.28538 -0.126357,-0.32833 -0.0695,-0.0429 -0.182911,-0.26786 -0.252031,-0.4998 -0.06912,-0.23195 -0.248926,-0.74648 -0.399569,-1.1434 -0.150642,-0.39693 -0.244333,-0.79919 -0.208202,-0.8939 0.07561,-0.1982 0.925196,-0.11269 1.904672,0.19171 0.32476,0.10093 0.915233,0.27506 1.312162,0.38696 0.396929,0.1119 0.995327,0.28765 1.329772,0.39056 0.334446,0.1029 0.696712,0.1871 0.805033,0.1871 0.108322,0 0.484205,0.0849 0.835295,0.18872 0.351088,0.1038 1.376435,0.37343 2.278546,0.59918 0.902111,0.22575 2.083056,0.53108 2.624323,0.67851 0.541267,0.14744 1.367928,0.34716 1.837026,0.44383 0.469098,0.0967 1.443378,0.29977 2.165067,0.45134 1.712181,0.35958 3.760225,0.7391 5.314254,0.98477 0.685604,0.10839 1.600837,0.25955 2.03385,0.33592 0.793475,0.13994 1.368791,0.20883 4.723782,0.56566 1.010364,0.10746 3.739723,0.25974 6.06524,0.33839 2.325518,0.0787 4.310708,0.17465 4.411533,0.21334 0.100826,0.0387 1.504766,0.004 3.119886,-0.0762 1.615111,-0.0806 3.025141,-0.15009 3.133401,-0.15448 0.19615,-0.008 3.962406,-0.41966 5.707906,-0.62394 1.91124,-0.22368 7.05108,-1.36546 9.24731,-2.05425 0.54315,-0.17034 1.31231,-0.40622 1.70924,-0.52418 0.68055,-0.20224 0.95235,-0.29682 2.23067,-0.77619 0.28868,-0.10825 0.77582,-0.29084 1.08254,-0.40574 0.99974,-0.37452 1.8315,-0.74557 3.641239,-1.62435 0.75778,-0.36796 1.61396,-0.80419 1.90264,-0.96941 0.28867,-0.16521 0.73153,-0.41446 0.98412,-0.55388 3.00891,-1.66083 6.66338,-4.75891 8.66967,-7.3497 0.57218,-0.73888 1.04032,-1.3842 1.04032,-1.43405 0,-0.0498 0.17538,-0.31206 0.38972,-0.58269 0.21434,-0.27063 0.45307,-0.63341 0.5305,-0.80618 0.16825,-0.37542 0.41695,-0.80994 0.6036,-1.05463 0.12027,-0.15767 0.80165,-1.71324 1.3137,-2.99916 0.76823,-1.92925 1.10288,-7.09719 0.65853,-10.16926 -0.19615,-1.35602 -0.72723,-3.7069 -1.09679,-4.85499 -0.20492,-0.6366 -0.54074,-1.56179 -1.35641,-3.73692 -0.21651,-0.57735 -0.56507,-1.50796 -0.77458,-2.06802 -0.43295,-1.15738 -0.6119,-1.95139 -0.72101,-3.19926 -0.064,-0.73259 -0.0366,-0.91741 0.17506,-1.1788 0.24787,-0.30611 0.25703,-0.30714 0.72806,-0.0825 0.26237,0.12511 0.55382,0.22748 0.64767,0.22748 0.16317,0 2.70722,2.52255 2.70722,2.68434 0,0.043 0.26572,0.34382 0.59048,0.66858 0.32476,0.32476 0.59047,0.64304 0.59047,0.7073 0,0.0643 0.0478,0.13651 0.10625,0.16057 0.0584,0.0241 0.66367,0.6637 1.34496,1.42142 0.6813,0.75773 1.29777,1.44331 1.36994,1.52351 0.63118,0.7014 0.8529,0.9856 0.8529,1.09324 0,0.0692 0.0754,0.17305 0.16756,0.23077 0.3594,0.22507 3.50649,4.67827 3.50649,4.96176 0,0.0447 0.14357,0.26951 0.31904,0.49956 0.17547,0.23006 0.38251,0.56564 0.4601,0.74574 0.0776,0.1801 0.34602,0.68174 0.59653,1.11476 0.94789,1.63845 2.56082,5.15632 2.56082,5.58527 0,0.1311 0.0512,0.27001 0.11379,0.30869 0.0626,0.0387 0.24799,0.49978 0.41201,1.02467 0.16403,0.52489 0.41317,1.30716 0.55364,1.73837 0.44403,1.36305 1.03647,4.20347 0.93298,4.47315 -0.0302,0.0787 0.0138,0.3156 0.0979,0.52651 0.42555,1.06833 0.60521,4.00687 0.49422,8.0834 -0.0741,2.721 -0.13947,3.58638 -0.29346,3.88415 -0.10897,0.21073 -0.25634,0.95214 -0.32749,1.64759 -0.074,0.723 -0.21496,1.38667 -0.32927,1.54986 -0.10995,0.15698 -0.29583,0.61532 -0.41306,1.01855 -0.11724,0.40323 -0.29723,0.92784 -0.39998,1.1658 -0.10276,0.23796 -0.24895,0.71034 -0.32486,1.04973 -0.0759,0.33939 -0.28884,0.97136 -0.47315,1.40437 -0.18431,0.43301 -0.48148,1.14158 -0.66038,1.57459 -0.32267,0.78098 -2.78835,5.79744 -3.09431,6.29541 -0.0877,0.1427 -0.41194,0.65863 -0.72058,1.1465 -0.30864,0.48788 -0.59892,0.99112 -0.64507,1.11831 -0.0462,0.1272 -0.25125,0.44643 -0.45577,0.7094 -0.20452,0.26298 -0.37322,0.52869 -0.37489,0.59048 -0.002,0.0618 -0.19358,0.33285 -0.42646,0.60238 -0.23287,0.26952 -0.63007,0.79137 -0.88266,1.15967 -0.25259,0.3683 -0.5183,0.73833 -0.59047,0.8223 -0.0722,0.084 -0.36239,0.44781 -0.64493,0.80856 -0.28255,0.36075 -0.58207,0.71495 -0.66561,0.78712 -0.0835,0.0722 -0.20665,0.22784 -0.27358,0.34594 -0.12525,0.22099 -2.45745,2.75313 -3.41629,3.70915 -1.32916,1.32527 -3.64467,3.37787 -5.36834,4.75881 -0.79533,0.63719 -1.71588,1.38456 -2.04566,1.66083 -0.32979,0.27626 -0.72299,0.57149 -0.87379,0.65608 -0.26138,0.1466 -0.90544,0.58255 -3.0035,2.033 -1.80166,1.24554 -5.689139,3.5289 -7.983289,4.68908 -1.17274,0.59308 -1.42889,0.72658 -1.86983,0.97454 -0.55003,0.30931 -2.91494,1.44546 -3.00874,1.44546 -0.0568,0 -0.48811,0.1837 -0.95839,0.40822 -0.47029,0.22452 -1.03221,0.48571 -1.24871,0.58042 -0.21651,0.0947 -0.77746,0.34567 -1.24656,0.5577 -0.46909,0.21203 -1.11861,0.48872 -1.44337,0.61487 -0.32476,0.12615 -0.73563,0.28629 -0.91304,0.35588 -0.17741,0.0696 -0.67931,0.24375 -1.11534,0.38705 -0.43602,0.14329 -0.9495,0.34562 -1.14106,0.44961 -0.19155,0.104 -0.4405,0.18909 -0.55321,0.18909 -0.11271,0 -0.39884,0.0826 -0.63584,0.18358 -0.44393,0.18913 -1.26597,0.50703 -2.0711,0.80096 -0.2526,0.0922 -0.81355,0.27053 -1.24657,0.39627 -0.43301,0.12574 -0.993956,0.3016 -1.246546,0.39081 -0.49043,0.1732 -0.81387,0.27157 -2.3619,0.71838 -0.54126,0.15623 -1.10221,0.33066 -1.24655,0.38763 -0.14434,0.057 -0.58719,0.19758 -0.98412,0.31248 -0.663361,0.19201 -1.098471,0.30886 -2.755531,0.74002 -0.32476,0.0845 -0.867025,0.20489 -1.205028,0.26753 -0.338003,0.0626 -0.73269,0.17712 -0.877083,0.2544 -0.144393,0.0773 -0.39927,0.14021 -0.566395,0.13985 -0.167124,-3.9e-4 -0.569575,0.0843 -0.894335,0.18816 -1.118719,0.35771 -2.54131,0.67525 -5.051822,1.12764 -0.61578,0.11096 -1.664726,0.31629 -3.346011,0.65498 -0.396929,0.08 -1.046449,0.19481 -1.443378,0.25522 -0.396929,0.0604 -0.987402,0.17145 -1.312162,0.24676 -0.869513,0.20163 -2.138921,0.41465 -2.471014,0.41465 -0.194841,0 -0.336505,-0.11853 -0.431267,-0.36085 z m 17.860925,-51.21958 c -2.790756,-0.56676 -6.178127,-1.19681 -7.413715,-1.37895 -0.721689,-0.10638 -1.403105,-0.24292 -1.514258,-0.30342 -0.111152,-0.0605 -0.642577,-0.1535 -1.180945,-0.20668 -0.538367,-0.0532 -1.092305,-0.15648 -1.230973,-0.22956 -0.138668,-0.0731 -0.847235,-0.21085 -1.574594,-0.30615 -0.727359,-0.0953 -2.001513,-0.29299 -2.831456,-0.43932 -0.829942,-0.14633 -2.010887,-0.35461 -2.624323,-0.46284 -0.613435,-0.10824 -1.79438,-0.31384 -2.624323,-0.45688 -0.829942,-0.14305 -1.981364,-0.34618 -2.558715,-0.45142 -0.577351,-0.10523 -1.935438,-0.3471 -3.017971,-0.53748 -1.082533,-0.19037 -2.411097,-0.43391 -2.952364,-0.54119 -0.541266,-0.10729 -1.367928,-0.2481 -1.837026,-0.31292 -0.469097,-0.0648 -1.679566,-0.27365 -2.689931,-0.46407 -1.010364,-0.19041 -2.161786,-0.38843 -2.558715,-0.44003 -1.071482,-0.13929 -1.45451,-0.37785 -1.713369,-1.06713 -0.214642,-0.57154 -0.439505,-1.53324 -0.644292,-2.75554 -0.05441,-0.32476 -0.162714,-0.85618 -0.24067,-1.18094 -0.07796,-0.32476 -0.228024,-1.00381 -0.33348,-1.50899 -0.105456,-0.50518 -0.256426,-1.21375 -0.335491,-1.57459 -0.18187,-0.83005 -0.385879,-2.17758 -0.546296,-3.60845 -0.06877,-0.61343 -0.177672,-1.29247 -0.241996,-1.50898 -0.356809,-1.20097 -0.72002,-8.24067 -0.625064,-12.11491 0.139385,-5.68696 0.620384,-9.40024 1.728127,-13.34103 0.101431,-0.36085 0.209971,-0.8037 0.241198,-0.98412 0.03122,-0.18042 0.214119,-0.74137 0.406428,-1.24656 0.19231,-0.50518 0.439262,-1.18422 0.548784,-1.508984 0.209923,-0.62247 2.121722,-4.51132 2.548034,-5.18304 0.13741,-0.2165 0.348877,-0.56987 0.469926,-0.78525 0.556776,-0.990656 1.766319,-2.751486 2.790263,-4.061996 1.54811,-1.981368 3.457096,-3.852268 5.397016,-5.289328 0.901256,-0.66764 1.697694,-1.26038 1.769863,-1.31721 0.524853,-0.41329 3.220852,-1.91716 4.133309,-2.30562 0.252591,-0.10754 0.790936,-0.34316 1.196321,-0.5236 0.405386,-0.18045 0.995859,-0.3973 1.312162,-0.48188 0.316303,-0.0846 0.634144,-0.19489 0.706313,-0.24511 0.191594,-0.13333 1.315946,-0.49274 2.296282,-0.73402 0.469098,-0.11546 1.148142,-0.29471 1.508986,-0.39835 0.360845,-0.10363 1.364648,-0.30897 2.230675,-0.45631 0.866026,-0.14735 2.046972,-0.36274 2.624323,-0.47866 0.577351,-0.11591 1.522107,-0.2279 2.099458,-0.24885 3.70145,-0.13435 7.667729,-0.0538 9.84121,0.19973 0.57735,0.0674 1.6402,0.18883 2.36189,0.26993 1.13841,0.12793 3.142536,0.44962 5.707916,0.9162 0.39692,0.0722 1.19406,0.24696 1.77141,0.38837 0.57735,0.14141 1.55163,0.37718 2.16507,0.52393 1.20281,0.28776 2.71301,0.69593 3.34601,0.90435 0.21651,0.0713 1.10222,0.34748 1.96824,0.61377 2.29962,0.70709 6.07824,2.02692 6.95446,2.42912 0.28867,0.13251 1.05629,0.44536 1.705809,0.69523 1.10191,0.4239 1.96309,0.8085 4.59256,2.051 0.57735,0.27282 1.79031,0.83193 2.69547,1.24247 1.48985,0.675728 1.68561,0.804858 2.06665,1.363258 0.49574,0.72646 0.53173,1.10104 0.12568,1.30803 -0.53962,0.27507 -2.22685,0.58064 -2.84023,0.51438 -0.33231,-0.0359 -1.84418,-0.22058 -3.35973,-0.41043 -8.400389,-1.05227 -9.452249,-1.13875 -13.953069,-1.14709 -3.38671,-0.006 -5.29043,0.13037 -7.7632,0.55724 -1.71188,0.29551 -4.196796,0.96707 -5.314266,1.43619 -2.49286,1.04653 -3.814021,1.74676 -4.986211,2.642736 -0.744446,0.56904 -1.996021,1.84433 -2.427495,2.47351 -0.108254,0.15786 -0.37583,0.53118 -0.594613,0.82962 -0.218783,0.29844 -0.470105,0.69023 -0.558493,0.87065 -0.08839,0.18043 -0.305392,0.56423 -0.482231,0.85291 -0.176837,0.28867 -0.324084,0.62097 -0.327215,0.73842 -0.0031,0.11746 -0.09426,0.28707 -0.202515,0.37692 -0.108253,0.0898 -0.198828,0.259454 -0.201276,0.376914 -0.0024,0.11746 -0.11854,0.44975 -0.25798,0.73842 -0.139441,0.28868 -0.255532,0.63208 -0.257981,0.76312 -0.0025,0.13104 -0.06768,0.35639 -0.144954,0.50079 -0.07728,0.14439 -0.190883,0.53908 -0.252457,0.87708 -0.06158,0.338 -0.205213,1.11039 -0.319199,1.71642 -0.113985,0.60602 -0.242399,1.78697 -0.285364,2.62432 -0.04296,0.83735 -0.09484,1.55198 -0.115269,1.58806 -0.07784,0.13746 0.177773,5.49999 0.315851,6.62642 0.469385,3.82916 1.229826,7.90526 2.007349,10.75973 0.07863,0.28868 0.186411,0.76106 0.23951,1.04973 0.0531,0.28868 0.158171,0.70201 0.233495,0.91851 0.07532,0.21651 0.228588,0.71841 0.340588,1.11534 0.485257,1.71976 0.742839,2.56293 1.463132,4.78939 0.420256,1.29904 0.935427,2.80475 1.144821,3.34601 0.757876,1.95904 1.163466,2.95947 1.347536,3.32384 0.10322,0.20432 0.18766,0.45048 0.18766,0.54704 0,0.0966 0.0839,0.34272 0.18638,0.54703 0.10251,0.20432 0.28509,0.63719 0.40574,0.96195 0.12065,0.32476 0.29506,0.76762 0.38758,0.98412 0.0925,0.21651 0.27018,0.65937 0.3948,0.98413 0.12462,0.32476 0.309201,0.78438 0.410171,1.02137 0.10097,0.237 0.18358,0.56929 0.18358,0.73843 0,0.16914 0.0812,0.37492 0.18047,0.4573 0.0993,0.0824 0.25443,0.41396 0.34484,0.73686 0.23425,0.83665 0.0759,0.98552 -1.033441,0.97163 -0.4783,-0.006 -1.43059,-0.12481 -2.11619,-0.26404 z m 20.793827,-14.62335 c -0.79602,-0.0975 -1.71125,-0.2433 -2.03385,-0.324 -0.3226,-0.0807 -0.83833,-0.20038 -1.14608,-0.26597 -0.30775,-0.0656 -0.67291,-0.17992 -0.81147,-0.25407 -0.13857,-0.0742 -0.38867,-0.13505 -0.5558,-0.13532 -0.16712,-2.7e-4 -0.49719,-0.11837 -0.73348,-0.26244 -0.2363,-0.14406 -0.52242,-0.26194 -0.63584,-0.26194 -0.11342,0 -0.36294,-0.0849 -0.5545,-0.1886 -0.19155,-0.10373 -0.9978,-0.49992 -1.79166,-0.88041 -1.3992,-0.67065 -3.55075,-2.02247 -4.11165,-2.58337 -0.15135,-0.15135 -0.49861,-0.41771 -0.7717,-0.59191 -0.523596,-0.33401 -2.628796,-2.42967 -3.613966,-3.59759 -1.45853,-1.72909 -3.136261,-4.63312 -3.571921,-6.18271 -0.0937,-0.33331 -0.27026,-0.9603 -0.39235,-1.39331 -0.51396,-1.82301 -0.71017,-3.46749 -0.60272,-5.05182 0.0563,-0.82995 0.16975,-1.67521 0.25214,-1.87838 0.0824,-0.20316 0.1498,-0.50565 0.1498,-0.6722 0,-0.27843 0.2109,-0.85101 0.75212,-2.04199 0.34068,-0.74968 0.73172,-1.50433 0.81591,-1.57459 0.0432,-0.0361 0.31335,-0.36342 0.60026,-0.72741 0.786461,-0.99778 2.210241,-2.21878 3.544361,-3.03957 2.838686,-1.74644 6.693206,-2.391804 10.754986,-1.80071 1.45026,0.21105 1.87005,0.31056 3.80526,0.90203 1.82629,0.55819 4.97331,1.97176 5.57693,2.50505 0.10839,0.0958 0.34458,0.23979 0.52487,0.32008 1.50063,0.6683 4.823829,3.51154 6.982269,5.97384 0.52803,0.60237 1.67775,2.26054 1.67775,2.41972 0,0.0588 0.0751,0.16918 0.16689,0.24536 0.0918,0.0762 0.43779,0.68864 0.7689,1.36103 0.56622,1.14984 0.76655,1.62281 1.15695,2.73152 0.64705,1.83758 0.82242,4.75592 0.40492,6.73818 -0.34956,1.65969 -0.65911,2.71595 -0.87091,2.97182 -0.0896,0.10825 -0.20359,0.35976 -0.25329,0.55891 -0.0497,0.19915 -0.1413,0.39356 -0.20354,0.43203 -0.0622,0.0385 -0.21058,0.27521 -0.32963,0.5261 -0.23312,0.49126 -2.9395,3.33796 -3.17343,3.33796 -0.0778,0 -0.51463,0.25011 -0.97079,0.5558 -0.87497,0.58636 -1.04907,0.66304 -2.92884,1.28991 -2.682569,0.89459 -5.218099,1.16465 -7.876899,0.83897 z"
       id="path4169"
       inkscape:export-filename="path4169.svg"
       inkscape:export-xdpi="96"
       inkscape:export-ydpi="96" /></g></svg>
