<?xml version="1.0" encoding="UTF-8" standalone="no"?>
<!-- Created with Inkscape (http://www.inkscape.org/) -->

<svg
   version="1.1"
   id="svg2"
   width="63.722866"
   height="63.722862"
   viewBox="0 0 63.722866 63.722862"
   sodipodi:docname="favicon.svg"
   xml:space="preserve"
   inkscape:version="1.2.1 (9c6d41e410, 2022-07-14)"
   xmlns:inkscape="http://www.inkscape.org/namespaces/inkscape"
   xmlns:sodipodi="http://sodipodi.sourceforge.net/DTD/sodipodi-0.dtd"
   xmlns="http://www.w3.org/2000/svg"
   xmlns:svg="http://www.w3.org/2000/svg"><defs
     id="defs6" /><sodipodi:namedview
     id="namedview4"
     pagecolor="#ffffff"
     bordercolor="#000000"
     borderopacity="0.25"
     inkscape:showpageshadow="2"
     inkscape:pageopacity="0.0"
     inkscape:pagecheckerboard="0"
     inkscape:deskcolor="#d1d1d1"
     showgrid="false"
     inkscape:zoom="6.5204227"
     inkscape:cx="16.79339"
     inkscape:cy="30.136083"
     inkscape:window-width="1920"
     inkscape:window-height="1016"
     inkscape:window-x="0"
     inkscape:window-y="0"
     inkscape:window-maximized="1"
     inkscape:current-layer="g8" /><g
     inkscape:groupmode="layer"
     inkscape:label="Image"
     id="g8"
     transform="translate(-9.6238747,-11.102844)"><circle
       style="fill:#3797a4;fill-opacity:1;stroke-width:0.804128"
       id="path1208"
       cx="41.485306"
       cy="42.964275"
       r="31.861431" /><path
       d="m 54.099477,57.171804 c 0.822398,1.187817 0.526302,2.817898 -0.661678,3.640295 -0.45469,0.314245 -0.973634,0.464991 -1.48702,0.464991 -0.830572,0 -1.644796,-0.393378 -2.153276,-1.126506 L 38.877761,44.378042 33.637632,49.740794 v 8.918847 c 0,1.44451 -1.169832,2.615977 -2.615977,2.615977 -1.446145,0 -2.615977,-1.171467 -2.615977,-2.615977 V 27.267917 c 0,-1.443692 1.169832,-2.61516 2.615977,-2.61516 1.446145,0 2.615977,1.171468 2.615977,2.615978 V 42.253378 L 50.077413,25.43755 c 1.006333,-1.030858 2.667479,-1.051295 3.699155,-0.04087 1.031675,1.008786 1.05293,2.665844 0.04087,3.699154 L 42.601441,40.565256 Z"
       id="path2907"
       style="fill:#f8f9fa;fill-opacity:1;stroke-width:0.0817493" /></g></svg>
